<svg height="28" viewBox="0 0 28 28" width="28" xmlns="http://www.w3.org/2000/svg" xmlns:xlink="http://www.w3.org/1999/xlink"><defs><path id="a" d="m14 1.5c6.9050481 0 12.5 5.59495192 12.5 12.5 0 6.9050481-5.5949519 12.5-12.5 12.5-6.90504808 0-12.5-5.5949519-12.5-12.5 0-6.90504808 5.59495192-12.5 12.5-12.5zm2.4399038 14.9819712c.0180289-.0120193.0300481-.0240385.0360577-.0420674l4.84375-9.59134611c.0661058-.10817307-.0600961-.234375-.1682692-.16826923l-9.5853365 4.83774034c-.0180289.0120193-.0300481.0240385-.0420673.0420674l-4.84375004 9.5913461c-.06610577.1081731.06009616.234375.16826923.1682692zm-.967548-1.0096154c.0540865.0540865.0420673.1502404-.0240385.1923077l-5.91947115 2.9747596c-.10817307.0661057-.234375-.0600962-.16826923-.1682693l2.97475958-5.9194711c.0420673-.0661058.1382212-.078125.1923077-.0240385z"/><mask id="b" fill="#fff"><use fill="none" xlink:href="#a"/></mask></defs><g fill="none" fill-rule="evenodd"><use fill="#8e8e93" fill-rule="nonzero" xlink:href="#a"/><g fill="#8e8e93" mask="url(#b)"><path d="m0 0h28v28h-28z"/></g></g></svg>
