<svg height="28" viewBox="0 0 28 28" width="28" xmlns="http://www.w3.org/2000/svg"><path d="m23.7222222 3.4c1.5338164 0 2.7777778 1.24396135 2.7777778 2.77777778v15.70048312c0 1.5338164-1.2439614 2.7777777-2.7777778 2.7777777h-16.90821254c-1.53381642 0-2.77777778-1.2439613-2.77777778-2.7777777 0-.4649759.38043479-.8454107.84541063-.8454107.46497585 0 .84541063.3804348.84541063.8454107 0 .5978261.48913043 1.0869565 1.08695652 1.0869565h16.90821254c.5978261 0 1.0869565-.4891304 1.0869565-1.0869565v-15.70048312c0-.59782609-.4891304-1.08695652-1.0869565-1.08695652h-16.90821254c-.59782609 0-1.08695652.48913043-1.08695652 1.08695652 0 .46497584-.38043478.84541063-.84541063.84541063-.46497584 0-.84541063-.38043479-.84541063-.84541063 0-1.53381643 1.24396136-2.77777778 2.77777778-2.77777778zm-11.6545893 15.3502415 3.8405797-3.8828502h-13.56280197c-.46497585 0-.84541063-.3804348-.84541063-.8454106 0-.4649759.38043478-.8454107.84541063-.8454107h13.53864737l-3.9371981-3.87681155c-.3321256-.3321256-.3321256-.86352657 0-1.19565217.1570048-.16304348.3743961-.24758454.5978261-.24758454.2294686 0 .4408212.09057971.5978261.24758454l5.1086956 5.09661832c.2536232.2536232.3925121.5555556.3925121.8756039 0 .326087-.1328502.6280193-.3925121.8876812l-4.9879227 4.9758454c-.1570048.1630435-.3683575.2475845-.5978261.2475845-.2173913 0-.4287439-.084541-.5917874-.2355072l-.0060386-.0060387c-.326087-.3321256-.326087-.8695652 0-1.1956522z" fill="#8E8E93"/></svg>
