<svg height="28" viewBox="0 0 28 28" width="28" xmlns="http://www.w3.org/2000/svg"><path d="m23.041613 5.66366258c-.6885514 0-1.2524512.55875991-1.2524512 1.23768325v6.57293917c0 .2883922-.2374315.5227109-.5282851.5227109s-.5282851-.2343187-.5282851-.5227109v-9.69718815c0-.67892333-.5638999-1.23768325-1.2524513-1.23768325-.6885513 0-1.2524512.55875992-1.2524512 1.23768325v7.61836095c0 .2883922-.2374315.5227109-.5282851.5227109s-.5282851-.2343187-.5282851-.5227109v-8.65777455c0-.67892334-.5638998-1.23768325-1.2524512-1.23768325s-1.2524512.55875991-1.2524512 1.23768325v9.69718815c0 .2883922-.2374315.5227109-.5282851.5227109s-.5282851-.2343187-.5282851-.5227109v-7.61836095c0-.67892333-.5638999-1.23768325-1.2524512-1.23768325-.6885514 0-1.2524513.55875992-1.2524513 1.23768325v13.11583755l-1.65014896-1.4179284c-1.5492406-1.3638548-2.86104969-1.9466474-3.92949149-.9432829-.71823032.7089642.40956936 1.8565249 1.59079112 3.1963471 1.13967125 1.2917568 4.15505143 5.5215092 6.72524753 7.0475847 0 0 .9912765.6849315 2.4099298.6849315h3.3952706c2.7363982 0 4.6536576-2.2770969 4.6536576-5.5996155v-13.99903867c-.0059358-.67892334-.5698356-1.23768325-1.258387-1.23768325z" fill="#8e8e93" /></svg>
