<svg height="28" viewBox="0 0 28 28" width="28" xmlns="http://www.w3.org/2000/svg" xmlns:xlink="http://www.w3.org/1999/xlink"><defs><path id="a" d="m24.1426959 15.8301224c-.441189 0-.819351.3292483-.8537294.7589453-.3953512 4.6373788-4.400431 8.2535298-9.2706998 8.2535298-5.12810642 0-9.30507806-4.0402675-9.30507806-9.0068946 0-4.8885005 4.0451879-8.88412408 9.06442956-9.00689464.1317837-.00558048.2349188.09486816.2349188.2232192v2.8069814c0 .70314044.7964322 1.12725694 1.4095131.75336474l5.5119982-3.75566294c.5729728-.35157024.5729728-1.16073983 0-1.51231006l-5.5062685-3.70543867c-.6130809-.37389216-1.4095131.05022432-1.4095131.75336479v2.55027932c0 .12277056-.0974053.2232192-.2234593.2232192-5.98183597.11719008-10.7948074 4.84943706-10.7948074 10.66987766 0 5.8929868 4.93329572 10.6642971 11.0182667 10.6642971 5.7755658 0 10.508321-4.2802281 10.9781587-9.7714204.0458378-.4855017-.3552431-.8984572-.8537295-.8984572z"/><mask id="b" fill="#fff"><use fill="none" xlink:href="#a"/></mask></defs><g fill="none" fill-rule="evenodd"><use fill="#8e8e93" fill-rule="nonzero" xlink:href="#a"/><g fill="#8e8e93" mask="url(#b)"><path d="m0 0h28v28h-28z"/></g></g></svg>
