<svg height="28" viewBox="0 0 28 28" width="28" xmlns="http://www.w3.org/2000/svg" xmlns:xlink="http://www.w3.org/1999/xlink"><defs><path id="a" d="m26.0414688 23.9538799-6.8447065-6.8473852c1.2269233-1.6734019 1.8841814-3.6965049 1.8750174-5.7714823-.0234104-5.41637938-4.4042874-9.80362918-9.8206271-9.8349129-2.59202383-.01172742-5.08108051 1.01368187-6.91267862 2.84779568s-2.85359006 4.32457559-2.83830496 6.91658092c.02341042 5.4168725 4.40468718 9.804522 9.82151998 9.8358058 2.0834304.0090298 4.1139249-.6559 5.7884467-1.8955534l.0071429-.0053572 6.8384565 6.842028c.3697336.3878848.9206618.5448915 1.4393257.4101872.518664-.1347042.9235665-.5399534 1.0578269-1.0587325.1342603-.518779-.0232178-1.0695727-.4114189-1.4389741zm-14.7269227-4.8143306c-4.33322954-.0249269-7.83819396-3.5346709-7.85721601-7.8679303-.01169548-2.07333569.80596534-4.06530498 2.27096795-5.53248765s3.45575385-2.28780463 5.52910466-2.27919219c4.3332295.024927 7.8381939 3.53467092 7.8572159 7.86793034.0116955 2.0733357-.8059653 4.065305-2.2709679 5.5324877-1.4650026 1.4671826-3.4557539 2.2878046-5.5291046 2.2791921z"/><mask id="b" fill="#fff"><use fill="none" xlink:href="#a"/></mask></defs><g fill="none" fill-rule="evenodd"><use fill="#8e8e93" xlink:href="#a"/><g fill="#8e8e93" mask="url(#b)"><path d="m0 0h28v28h-28z"/></g></g></svg>
