<svg height="33" viewBox="0 0 33 33" width="33" xmlns="http://www.w3.org/2000/svg"><path d="m152.318527 331.455c-8.834157 0-15.998527 7.344673-15.998527 16.405419 0 7.247993 4.584057 13.396248 10.942018 15.56551.800516.151062 1.092237-.355501 1.092237-.790562 0-.389742-.013751-1.420998-.021609-2.789626-4.450474.990971-5.389484-2.199475-5.389484-2.199475-.727831-1.895334-1.77685-2.399884-1.77685-2.399884-1.452715-1.017156.11001-.997014.11001-.997014 1.605942.115815 2.450658 1.690896 2.450658 1.690896 1.427177 2.506635 3.745235 1.782541 4.656742 1.362586.14537-1.059453.558888-1.782541 1.015624-2.192424-3.552718-.413912-7.288131-1.821818-7.288131-8.108044 0-1.790597.623715-3.255906 1.647196-4.401969-.165014-.41492-.714079-2.08366.157157-4.341545 0 0 1.342705-.441103 4.399398 1.681832 1.275914-.364564 2.64514-.54584 4.005525-.552889 1.359403.007049 2.727647.188325 4.005525.552889 3.054729-2.122935 4.39547-1.681832 4.39547-1.681832.8732 2.257885.324135 3.926625.160103 4.341545 1.025446 1.146063 1.644249 2.611372 1.644249 4.401969 0 6.30234-3.741306 7.689096-7.304828 8.094952.573621.506563 1.085362 1.507606 1.085362 3.037369 0 2.193431-.019645 3.96288-.019645 4.500664 0 .439089.288775.949681 1.100095.789555 6.35305-2.174297 10.933178-8.318525 10.933178-15.564503 0-9.060746-7.16437-16.405419-16.001473-16.405419" fill="#fff" fill-rule="evenodd" transform="translate(-136 -331)"/></svg>
