<svg height="28" viewBox="0 0 28 28" width="28" xmlns="http://www.w3.org/2000/svg"><path d="m18.5252404 17.1670673c.3786058.3725962.3786058.9855769 0 1.3581731-.3725962.3725961-.9855769.3725961-1.3581731 0l-3.1670673-3.1670673-3.1670673 3.1670673c-.3725962.3725961-.9735577.3846154-1.35817308 0-.38461539-.3786058-.40264424-.9555289 0-1.3581731l3.16706728-3.1670673-3.16706728-3.1670673c-.36057693-.3605769-.4266827-.93149039 0-1.35817308.42067307-.4266827.98557688-.37259616 1.35817308 0l3.1670673 3.16706728 3.1670673-3.16706728c.3725962-.37259616.9855769-.37259616 1.3581731 0 .3725961.37259615.3725961.98557688 0 1.35817308l-3.1670673 3.1670673zm-4.5252404-13.98437499c-2.890625 0-5.60697115 1.12379807-7.65024038 3.16706731-2.04326924 2.04326923-3.16706731 4.75961538-3.16706731 7.65024038s1.12379807 5.6069712 3.16706731 7.6502404c2.04326923 2.0432692 4.75961538 3.1670673 7.65024038 3.1670673s5.6069712-1.1237981 7.6502404-3.1670673 3.1670673-4.7596154 3.1670673-7.6502404-1.1237981-5.60697115-3.1670673-7.65024038c-2.0432692-2.04326924-4.7596154-3.16706731-7.6502404-3.16706731zm0-1.68269231c6.9050481 0 12.5 5.59495192 12.5 12.5 0 6.9050481-5.5949519 12.5-12.5 12.5-6.90504808 0-12.5-5.5949519-12.5-12.5 0-6.90504808 5.59495192-12.5 12.5-12.5z" fill="#8E8E93" fill-rule="evenodd"/></svg>
