<svg height="262" viewBox="0 0 200 262" width="200" xmlns="http://www.w3.org/2000/svg" xmlns:xlink="http://www.w3.org/1999/xlink"><linearGradient id="a" x1="50%" x2="50%" y1="90.91788%" y2="0%"><stop offset="0" stop-color="#f26d5f"/><stop offset="1" stop-color="#f00540"/></linearGradient><path d="m817.411401 409.699989c1.97713 4.397992 2.113136 9.299474.385351 13.795648l-12.862677 32.470122c-7.908519 20.582704-26.576655 34.758487-48.690286 36.933567l-72.577037 7.142017-49.29224-53.468205c-15.01863-16.287928-19.421208-39.234522-11.49002-59.880162l12.862678-32.467604c1.702598-4.438272 5.090164-7.997951 9.510372-9.964084 4.425245-1.963613 9.354217-2.102074 13.87517-.380135 9.336586 3.547093 14.031325 13.994527 10.464935 23.281415l-9.724456 24.922795c-2.581603 6.719084-2.377593 14.067533.589361 20.66578 2.961917 6.595729 8.334169 11.650777 15.119376 14.22865 10.621092 4.035479 24.733014 1.585996 32.472784-17.425817l27.669743-72.021842c-22.48387-12.139163-32.99666-39.556755-23.49888-64.278154 4.996975-13.005167 14.716394-23.329246 27.367506-29.071559 12.681336-5.759934 26.795777-6.218111 39.731495-1.304041 12.938237 4.919105 23.141235 14.623891 28.732608 27.329481 5.576262 12.670346 5.89361 26.808368.899154 39.816053-5.863387 15.255771-18.164409 26.730326-33.75477 31.480763-.662401.201396-1.334878.299576-1.992242.299576-2.911544 0-5.603967-1.875503-6.498083-4.785679-1.100644-3.56975.916784-7.350967 4.505842-8.446059 11.555504-3.5194 20.680526-12.0435 25.035249-23.377078 3.714989-9.669541 3.483274-20.169842-.652327-29.562463-4.117971-9.359894-11.62099-16.504428-21.131363-20.116975-9.502816-3.615064-19.889674-3.270172-29.231298.96922-9.381922 4.26205-16.592778 11.930215-20.307768 21.597238-7.654137 19.918096 2.118173 42.2026 21.783689 49.67692 2.637013 1.004465 4.281683 3.464017 4.367317 6.107344.042817.903766-.090672 1.827671-.435725 2.726402l-29.936516 77.915202c-9.326512 22.896245-29.382416 32.935852-49.979828 25.106569-10.180329-3.869326-18.23493-11.44938-22.680324-21.345492-4.447912-9.893594-4.755186-20.920043-.866411-31.045243l9.724457-24.920277c.876485-2.288366-.294681-4.901483-2.626938-5.787627-1.133387-.430485-2.365-.397758-3.468163.095663-1.1082.490903-1.954462 1.379565-2.385149 2.504866l-12.862678 32.467606c-6.057321 15.764296-2.682348 33.358782 8.832859 45.847872l44.698246 48.483647 65.814497-6.477409c16.952945-1.666555 31.266357-12.536921 37.346346-28.366672l12.862678-32.467605c.866411-2.255638-.307273-4.866238-2.639531-5.7549-1.133387-.427967-2.365-.397758-3.470682.095664-1.105681.490903-1.951943 1.379564-2.38263 2.502349l-9.721938 24.922795c-8.019339 20.869694-31.646671 31.372512-52.662176 23.389665-3.505942-1.33425-5.263951-5.243856-3.924036-8.733048 1.342433-3.486674 5.276544-5.236304 8.77745-3.904571 14.006138 5.331968 29.765248-1.679142 35.11987-15.610732l9.719419-24.922795c1.715192-4.465964 5.105277-8.028161 9.528004-9.994293 4.415169-1.961096 9.349179-2.099557 13.870132-.377618 4.520952 1.716904 8.102454 5.085258 10.079584 9.48325zm-75.196923-111.57885c-1.79075 0-3.558833-.722509-4.805558-1.983753-1.269393-1.241105-1.994761-2.998288-1.994761-4.778128 0-.430485.045336-.881109.136007-1.309076.068003-.427967.20401-.855935.385351-1.263762.158674-.40531.362684-.81062.612029-1.170616.249345-.382653.544025-.722509.861374-1.037191 1.564073-1.578444 3.918998-2.275779 6.120287-1.850329.428168.090628.861373.229088 1.269392.385171.430688.178739.816039.382653 1.178723.63188.385351.246711.722849.516079 1.042715.833278.317349.314682.589362.654538.836188 1.037191.249345.359996.453355.765306.634697 1.170616.161192.407827.29468.835795.385351 1.263762s.138525.878591.138525 1.309076c0 1.77984-.727886 3.537023-1.994761 4.778128-1.271911 1.261244-3.014808 1.983753-4.805559 1.983753zm18.131667.000002c-1.790751 0-3.558834-.722509-4.828227-1.983753-1.246725-1.241105-1.972093-2.998288-1.972093-4.778128 0-.430485.045336-.881109.136007-1.309076.068003-.427967.204009-.855935.385351-1.263762.158674-.427967.362683-.81062.612029-1.170616.249345-.382653.544025-.722509.838706-1.037191 1.586741-1.555787 3.941666-2.275779 6.142955-1.850329.450836.090628.861374.229088 1.269393.38517.430686.17874.816038.382653 1.178722.631881.385351.246711.722848.516079 1.042715.833278 1.266875 1.261244 1.994761 2.998287 1.994761 4.780645 0 1.77984-.727886 3.537023-1.994761 4.778128-1.271911 1.261244-3.014808 1.983753-4.805558 1.983753zm18.131918 0c-.453355 0-.886561-.045314-1.337397-.135942-.430687-.090628-.863892-.203914-1.269393-.382653-.408019-.156082-.793371-.362513-1.178722-.609224-.362683-.249228-.725367-.541253-1.020048-.855934-.317348-.3172-.612028-.654538-.861373-1.014534-.249346-.359996-.453355-.765306-.612029-1.173134-.181342-.40531-.317348-.835795-.385352-1.261244-.09067-.430485-.136006-.878592-.136006-1.329216 0-1.782358.725368-3.519401 1.99476-4.780645 2.5136-2.50235 7.072332-2.525007 9.611118 0 .317348.314682.589361.654538.836188 1.037191.249344.359996.453354.742649.634696 1.170616.161193.407827.294681.835795.385352 1.263762.09067.427967.138525.878591.138525 1.309076 0 .450624-.047855.898731-.138525 1.329216-.090671.425449-.224159.855934-.385352 1.261244-.181342.407828-.385352.813138-.634696 1.173134-.246827.359996-.541507.697334-.836188 1.014534-.319867.314681-.657364.606706-1.042715.855934-.362684.246711-.748036.453142-1.178722.609224-.408019.178739-.841225.292025-1.269393.382653-.430687.090628-.88656.135942-1.314728.135942z" fill="url(#a)" transform="translate(-619 -239)"/></svg>
