<svg height="28" viewBox="0 0 28 28" width="28" xmlns="http://www.w3.org/2000/svg"><path d="m14 1.5c6.9050481 0 12.5 5.59495192 12.5 12.5 0 6.9050481-5.5949519 12.5-12.5 12.5-6.90504808 0-12.5-5.5949519-12.5-12.5 0-6.90504808 5.59495192-12.5 12.5-12.5zm4.8495427 7.05816531-11.49127232 5.00845429c-.20346845.0970388-.19720788.3881552.00939086.4789335l3.10837196 1.7560893c.1846867.1032993.4131975.0813873.572842-.0563452l6.1290959-5.2839193c.0406937-.0344331.1377325-.100169.1752959-.0626056.0406937.0406937-.021912.1346022-.0563451.1752959l-5.302701 5.9725817c-.1471233.1659051-.1690353.4100672-.0500845.5978843l2.0315542 3.2586255c.1001691.1972079.385025.1940776.4758032-.0062605l4.751771-11.49127237c.1032994-.22538045-.1314719-.45389117-.3537221-.34746152z" fill="#8E8E93"/></svg>
