<svg height="28" viewBox="0 0 28 28" width="28" xmlns="http://www.w3.org/2000/svg" xmlns:xlink="http://www.w3.org/1999/xlink"><defs><path id="a" d="m26.5 9.62222222v4.44444448c0 2.7614237-5.5964406 5-12.5 5-6.90355937 0-12.5-2.2385763-12.5-5v-4.44444448c0 2.76142378 5.59644063 4.99999998 12.5 4.99999998 6.9035594 0 12.5-2.2385762 12.5-4.99999998zm0 6.66666668v4.4444444c0 2.7614238-5.5964406 5-12.5 5-6.90355937 0-12.5-2.2385762-12.5-5v-4.4444444c0 2.7614237 5.59644063 5 12.5 5 6.9035594 0 12.5-2.2385763 12.5-5zm-12.5-3.8888889c-6.90355937 0-12.5-2.2385763-12.5-5 0-2.76142375 5.59644063-5 12.5-5 6.9035594 0 12.5 2.23857625 12.5 5 0 2.7614237-5.5964406 5-12.5 5z"/><mask id="b" fill="#fff"><use fill="none" xlink:href="#a"/></mask></defs><g fill="none" fill-rule="evenodd"><use fill="#8e8e93" xlink:href="#a"/><g fill="#8e8e93" mask="url(#b)"><path d="m0 0h28v28h-28z"/></g></g></svg>
